<svg width="31" height="30" viewBox="0 0 31 30" fill="none" xmlns="http://www.w3.org/2000/svg">
<path fill-rule="evenodd" clip-rule="evenodd" d="M10.3584 0.117551C10.9106 0.0398476 11.4749 0 12.0493 0H18.8933C20.8714 0 22.6949 1.04999 23.6769 2.75347L30.1232 13.9467V17.9314H26.1068V25.901H20.0822V29.5749H6.02465V22.3087C2.42392 20.2426 0 16.3794 0 11.9543C0 11.3845 0.0401644 10.8246 0.118485 10.2767L3.40393 11.5359C3.46819 11.5598 3.52643 11.5977 3.57463 11.6455C3.62282 11.6933 3.66098 11.7511 3.68508 11.8148L5.11694 15.4908C5.5226 16.5328 6.53072 17.2202 7.65532 17.2202C8.78193 17.2202 9.79006 16.5328 10.1957 15.4908L11.6276 11.8148C11.6517 11.7511 11.6898 11.6933 11.738 11.6455C11.7862 11.5977 11.8445 11.5598 11.9087 11.5359L15.6139 10.1153C16.6642 9.71286 17.357 8.71269 17.357 7.59496C17.357 6.47923 16.6642 5.47905 15.6139 5.07659L11.9087 3.65602C11.8445 3.63211 11.7862 3.59426 11.738 3.54644C11.6898 3.49862 11.6517 3.44084 11.6276 3.37709L10.3584 0.117551Z" fill="black"/>
<path fill-rule="evenodd" clip-rule="evenodd" d="M4.88611 9.21085L1.9665 8.09221C1.76027 8.01318 1.62427 7.81642 1.62427 7.5971C1.62427 7.37775 1.76027 7.18102 1.9665 7.10199L4.88611 5.98335C5.14619 5.88368 5.38238 5.73117 5.57952 5.53558C5.77667 5.33999 5.9304 5.10566 6.03083 4.84763L7.15836 1.95105C7.23801 1.74644 7.43634 1.61151 7.6574 1.61151C7.87849 1.61151 8.07678 1.74644 8.15644 1.95105L9.28397 4.84763C9.38443 5.10566 9.53816 5.33999 9.73531 5.53558C9.93246 5.73117 10.1686 5.88368 10.4287 5.98335L13.3483 7.10199C13.5546 7.18102 13.6906 7.37775 13.6906 7.5971C13.6906 7.81642 13.5546 8.01318 13.3483 8.09221L10.4287 9.21085C10.1686 9.31049 9.93246 9.463 9.73531 9.65859C9.53816 9.85418 9.38443 10.0885 9.28397 10.3465L8.15644 13.2431C8.07678 13.4477 7.87849 13.5827 7.6574 13.5827C7.43634 13.5827 7.23801 13.4477 7.15836 13.2431L6.03083 10.3465C5.9304 10.0885 5.77667 9.85418 5.57952 9.65859C5.38238 9.463 5.14619 9.31049 4.88611 9.21085Z" fill="black"/>
</svg>
